<svg width="68" height="68" viewBox="0 0 68 68" fill="none" xmlns="http://www.w3.org/2000/svg">
<path fill-rule="evenodd" clip-rule="evenodd" d="M33.7281 67.4562C52.3556 67.4562 67.4562 52.3556 67.4562 33.7281C67.4562 15.1006 52.3556 0 33.7281 0C15.1006 0 0 15.1006 0 33.7281C0 52.3556 15.1006 67.4562 33.7281 67.4562ZM27.4218 13.1889C25.6309 11.8955 23.1306 12.2988 21.8372 14.0897C20.5437 15.8806 20.947 18.3809 22.7379 19.6743L41.5982 33.2957L22.7379 46.917C20.947 48.2105 20.5437 50.7108 21.8372 52.5017C23.1306 54.2926 25.6309 54.6959 27.4218 53.4025L47.4046 38.9704C51.2734 36.1763 51.2734 30.415 47.4046 27.6209L27.4218 13.1889Z" fill="#E6E054"/>
</svg>
