<svg width="68" height="68" viewBox="0 0 68 68" fill="none" xmlns="http://www.w3.org/2000/svg">
<path fill-rule="evenodd" clip-rule="evenodd" d="M33.7281 0.543777C15.1006 0.543777 -1.52588e-05 15.6444 -1.52588e-05 34.2719C-1.52588e-05 52.8994 15.1006 68 33.7281 68C52.3556 68 67.4562 52.8994 67.4562 34.2719C67.4562 15.6444 52.3556 0.543777 33.7281 0.543777ZM40.0344 54.8111C41.8253 56.1045 44.3256 55.7012 45.619 53.9103C46.9125 52.1194 46.5092 49.6191 44.7183 48.3257L25.858 34.7043L44.7183 21.083C46.5092 19.7895 46.9125 17.2892 45.619 15.4983C44.3256 13.7074 41.8253 13.3041 40.0344 14.5975L20.0516 29.0296C16.1828 31.8237 16.1828 37.585 20.0516 40.3791L40.0344 54.8111Z" fill="#E6E054"/>
</svg>
