<svg width="68" height="68" viewBox="0 0 68 68" fill="none" xmlns="http://www.w3.org/2000/svg">
<circle cx="34" cy="34" r="34" fill="#E6E054"/>
<path d="M40.5 8L42.2556 12.7444L47 14.5L42.2556 16.2556L40.5 21L38.7444 16.2556L34 14.5L38.7444 12.7444L40.5 8Z" fill="#9B181F"/>
<path d="M27.5 42L29.2556 46.7444L34 48.5L29.2556 50.2556L27.5 55L25.7444 50.2556L21 48.5L25.7444 46.7444L27.5 42Z" fill="#9B181F"/>
<path d="M26.4023 31.7148V28.2695H14.7891V33.8125H23.7305V35.1719H14.7891V41.6289H26.5664V37.9375H27.8906V43H9.96094V41.6758H13.3242V28.2109H9.96094V26.8984H27.7148V31.7148H26.4023Z" fill="#1D2834"/>
<path d="M32.9391 26.8984H44.5758C45.8961 26.8984 47.1227 27.0273 48.2555 27.2852C49.3883 27.543 50.3688 27.9844 51.1969 28.6094C52.0328 29.2266 52.6852 30.0508 53.1539 31.082C53.6305 32.1133 53.8688 33.3984 53.8688 34.9375C53.8688 35.9688 53.7594 36.8867 53.5406 37.6914C53.3297 38.4883 53.0289 39.1836 52.6383 39.7773C52.2477 40.3711 51.7711 40.875 51.2086 41.2891C50.6539 41.7031 50.0328 42.0352 49.3453 42.2852C48.6656 42.5352 47.9234 42.7188 47.1188 42.8359C46.3219 42.9453 45.482 43 44.5992 43H32.9391V41.6758H36.3023V28.2109H32.9391V26.8984ZM52.357 34.9375C52.357 34.0625 52.2711 33.2891 52.0992 32.6172C51.9273 31.9453 51.6813 31.3633 51.3609 30.8711C51.0406 30.3711 50.65 29.9531 50.1891 29.6172C49.7281 29.2812 49.2086 29.0117 48.6305 28.8086C48.0523 28.5977 47.4234 28.4492 46.7438 28.3633C46.0641 28.2773 45.3414 28.2344 44.5758 28.2344H37.7672V41.6523H44.5758C45.7242 41.6523 46.775 41.5508 47.7281 41.3477C48.6813 41.1367 49.4977 40.7773 50.1773 40.2695C50.8648 39.7539 51.4 39.0664 51.7828 38.207C52.1656 37.3398 52.357 36.25 52.357 34.9375Z" fill="#1D2834"/>
<path d="M53.5 25L55.2556 29.7444L60 31.5L55.2556 33.2556L53.5 38L51.7444 33.2556L47 31.5L51.7444 29.7444L53.5 25Z" fill="#9B181F"/>
</svg>
