<svg width="50" height="50" viewBox="0 0 50 50" fill="none" xmlns="http://www.w3.org/2000/svg">
<g clip-path="url(#clip0_49_109)">
<path d="M25 50C38.8071 50 50 38.8071 50 25C50 11.1929 38.8071 0 25 0C11.1929 0 0 11.1929 0 25C0 38.8071 11.1929 50 25 50Z" fill="white"/>
<path d="M16.9227 26.8275L19.8887 35.037C19.8887 35.037 20.2596 35.8052 20.6567 35.8052C21.0537 35.8052 26.9598 29.661 26.9598 29.661L33.5275 16.9756L17.0285 24.7083L16.9227 26.8275Z" fill="#32404B"/>
<path d="M20.8554 28.9329L20.286 34.9841C20.286 34.9841 20.0477 36.8383 21.9014 34.9841C23.7552 33.1299 25.5296 31.7002 25.5296 31.7002" fill="#8DA0AC"/>
<path d="M16.9763 27.1204L10.875 25.1324C10.875 25.1324 10.1458 24.8366 10.3806 24.1658C10.429 24.0274 10.5265 23.9097 10.8181 23.7074C12.17 22.7651 35.8402 14.2574 35.8402 14.2574C35.8402 14.2574 36.5085 14.0322 36.9027 14.182C37.0002 14.2122 37.088 14.2678 37.157 14.343C37.226 14.4182 37.2737 14.5104 37.2954 14.6101C37.338 14.7863 37.3558 14.9676 37.3483 15.1487C37.3465 15.3054 37.3275 15.4506 37.3131 15.6783C37.169 18.0043 32.8548 35.3643 32.8548 35.3643C32.8548 35.3643 32.5967 36.3802 31.6719 36.4149C31.4446 36.4223 31.2182 36.3838 31.0061 36.3018C30.794 36.2197 30.6007 36.0958 30.4375 35.9374C28.6227 34.3764 22.3502 30.161 20.9642 29.2339C20.9329 29.2126 20.9066 29.1848 20.887 29.1525C20.8673 29.1201 20.8549 29.084 20.8504 29.0464C20.831 28.9487 20.9373 28.8277 20.9373 28.8277C20.9373 28.8277 31.8594 19.1193 32.15 18.1001C32.1725 18.0212 32.0875 17.9822 31.9733 18.0168C31.2479 18.2837 18.6725 26.2251 17.2846 27.1016C17.1847 27.1318 17.0791 27.1383 16.9763 27.1204Z" fill="#1D2834"/>
</g>
<defs>
<clipPath id="clip0_49_109">
<rect width="50" height="50" fill="white"/>
</clipPath>
</defs>
</svg>
