<svg width="50" height="50" viewBox="0 0 50 50" fill="none" xmlns="http://www.w3.org/2000/svg">
<path d="M25 50C38.8071 50 50 38.8071 50 25C50 11.1929 38.8071 0 25 0C11.1929 0 0 11.1929 0 25C0 38.8071 11.1929 50 25 50Z" fill="white"/>
<path fill-rule="evenodd" clip-rule="evenodd" d="M23.742 36.4395H25.7873C25.7873 36.4395 26.4049 36.3714 26.7208 36.0316C27.011 35.7193 27.0017 35.1332 27.0017 35.1332C27.0017 35.1332 26.9617 32.3888 28.2352 31.9847C29.4911 31.5864 31.1035 34.637 32.8123 35.8102C34.1046 36.6976 35.0866 36.5034 35.0866 36.5034L39.6564 36.4395C39.6564 36.4395 42.0467 36.292 40.9132 34.4125C40.8205 34.259 40.2529 33.0223 37.5154 30.4813C34.6499 27.8218 35.034 28.2521 38.4855 23.6517C40.5875 20.8501 41.4277 19.1398 41.1652 18.4073C40.915 17.7094 39.3689 17.8938 39.3689 17.8938L34.2238 17.9256C34.2238 17.9256 33.8421 17.8737 33.5594 18.0429C33.2828 18.2083 33.1054 18.5948 33.1054 18.5948C33.1054 18.5948 32.2907 20.7626 31.2051 22.6066C28.914 26.4968 27.9977 26.7027 27.6233 26.4608C26.752 25.8977 26.9697 24.1992 26.9697 22.9923C26.9697 19.222 27.5416 17.65 25.8561 17.2431C25.2969 17.1082 24.8849 17.0189 23.4545 17.0043C21.6186 16.9856 20.065 17.01 19.1852 17.441C18.5998 17.7276 18.1482 18.3663 18.4234 18.403C18.7636 18.4483 19.5335 18.6109 19.9418 19.1663C20.4692 19.8839 20.4507 21.4946 20.4507 21.4946C20.4507 21.4946 20.7538 25.9328 19.7432 26.4839C19.0498 26.862 18.0983 26.0902 16.0557 22.5607C15.0094 20.7528 14.219 18.7541 14.219 18.7541C14.219 18.7541 14.0669 18.3807 13.795 18.1808C13.4653 17.9386 13.0047 17.8619 13.0047 17.8619L8.1153 17.8938C8.1153 17.8938 7.38149 17.9143 7.11183 18.2335C6.87192 18.5176 7.09267 19.1045 7.09267 19.1045C7.09267 19.1045 10.9203 28.0599 15.2547 32.5728C19.2294 36.7111 23.742 36.4395 23.742 36.4395Z" fill="#1D2834"/>
</svg>
